{
	"asset":{
		"generator":"Khronos glTF Blender I/O v4.4.56",
		"version":"2.0"
	},
	"scene":0,
	"scenes":[
		{
			"name":"Scene",
			"nodes":[
				0
			]
		}
	],
	"nodes":[
		{
			"mesh":0,
			"name":"Mesh_0"
		}
	],
	"materials":[
		{
			"name":"Material_0",
			"normalTexture":{
				"index":0
			},
			"occlusionTexture":{
				"index":1
			},
			"pbrMetallicRoughness":{
				"baseColorTexture":{
					"index":2
				},
				"metallicFactor":0
			}
		}
	],
	"meshes":[
		{
			"name":"Mesh_0",
			"primitives":[
				{
					"attributes":{
						"POSITION":0,
						"NORMAL":1,
						"TEXCOORD_0":2
					},
					"indices":3,
					"material":0
				}
			]
		}
	],
	"textures":[
		{
			"sampler":0,
			"source":0
		},
		{
			"sampler":0,
			"source":1
		},
		{
			"sampler":0,
			"source":2
		}
	],
	"images":[
		{
			"mimeType":"image/jpeg",
			"name":"4087c6611e8ce6c8dfda16ed12fbe16f",
			"uri":"4087c6611e8ce6c8dfda16ed12fbe16f.jpg"
		},
		{
			"mimeType":"image/jpeg",
			"name":"81df9bb86c2e10ae1c13f776fadf3e56",
			"uri":"81df9bb86c2e10ae1c13f776fadf3e56.jpg"
		},
		{
			"mimeType":"image/jpeg",
			"name":"dff5b9b0fd8b61c2dda3b76ccb4d5d2d",
			"uri":"dff5b9b0fd8b61c2dda3b76ccb4d5d2d.jpg"
		}
	],
	"accessors":[
		{
			"bufferView":0,
			"componentType":5126,
			"count":35545,
			"max":[
				0.04271392896771431,
				0.21878594160079956,
				0.063754603266716
			],
			"min":[
				-0.039332710206508636,
				0.09411686658859253,
				-0.01339121162891388
			],
			"type":"VEC3"
		},
		{
			"bufferView":1,
			"componentType":5126,
			"count":35545,
			"type":"VEC3"
		},
		{
			"bufferView":2,
			"componentType":5126,
			"count":35545,
			"type":"VEC2"
		},
		{
			"bufferView":3,
			"componentType":5123,
			"count":35613,
			"type":"SCALAR"
		}
	],
	"bufferViews":[
		{
			"buffer":0,
			"byteLength":426540,
			"byteOffset":0,
			"target":34962
		},
		{
			"buffer":0,
			"byteLength":426540,
			"byteOffset":426540,
			"target":34962
		},
		{
			"buffer":0,
			"byteLength":284360,
			"byteOffset":853080,
			"target":34962
		},
		{
			"buffer":0,
			"byteLength":71226,
			"byteOffset":1137440,
			"target":34963
		}
	],
	"samplers":[
		{
			"magFilter":9729,
			"minFilter":9987
		}
	],
	"buffers":[
		{
			"byteLength":1208668,
			"uri":"can.bin"
		}
	]
}
